<?xml version="1.0" encoding="utf-8"?>
<!-- Generator: Adobe Illustrator 21.1.0, SVG Export Plug-In . SVG Version: 6.00 Build 0)  -->
<svg version="1.1" id="Capa_1" xmlns="http://www.w3.org/2000/svg" xmlns:xlink="http://www.w3.org/1999/xlink" x="0px" y="0px"
	 width="1600px" height="577px" viewBox="0 0 1600 577" style="enable-background:new 0 0 1600 577;" xml:space="preserve">
<style type="text/css">
	.st0{fill:#040006;}
	.st1{fill:#D13333;}
</style>
<g>
	<path class="st0" d="M709.1228638,368.0113525c0,32.4321899-14.7614136,51.3656616-26.9608765,61.6400146
		c-14.767395,12.5204163-35.31604,19.2672119-57.78302,19.2672119c-5.1375732,0-10.274292-0.3277893-15.0960083-0.9714661
		v-11.7816467c33.989624-7.267334,62.2836914-33.2108765,62.2836914-68.1541138v-168.213974h37.5562134V368.0113525z"/>
	<polygon class="st0" points="232.6281586,199.7973785 232.6281586,352.6062317 83.0326462,188.5507202 83.0326462,386.414093 
		120.2669983,386.414093 120.2669983,284.869873 270.1852112,448.9185791 270.1852112,199.7973785 	"/>
	<rect x="319.7837219" y="199.7973785" class="st0" width="37.2343483" height="187.4684601"/>
	<polygon class="st0" points="556.2070312,199.7973785 556.2070312,352.6062317 406.6106567,188.5507202 406.6106567,386.414093 
		443.8458557,386.414093 443.8458557,284.869873 593.7700195,448.9185791 593.7700195,199.7973785 	"/>
	<g>
		<path class="st0" d="M238.5104828,109.7961731h-17.3174896v54.16716h-9.9329529v-54.16716h-17.3183441v-8.8290024h44.5687866
			V109.7961731z"/>
		<path class="st0" d="M297.0390625,163.9633331h-9.845459v-27.1689148h-25.1368408v27.1689148h-9.8446198v-62.9961624h9.8446198
			v26.915863h25.1368408v-26.915863h9.845459V163.9633331z"/>
		<path class="st0" d="M324.6682739,126.6024551h23.0095825v8.9232712h-23.0095825v19.5262299h27.9331665v8.911377H324.586731
			h-9.7698975v-62.9961624h9.7698975h28.0147095v8.8290024h-27.9331665V126.6024551z"/>
	</g>
	<g>
		<g>
			<path class="st1" d="M693.4315796,528.4934692c0-0.0025635,0.003418-0.0093384,0.0059204-0.0153198v-0.0033569
				C693.4375,528.4815674,693.4349976,528.4874878,693.4315796,528.4934692z"/>
			<path class="st1" d="M865.4898071,36.6573067c-45.2269287,121.2343445-91.0176392,242.3132782-132.7077026,364.8230591
				c-4.458252,13.1004333-39.3471069,115.3859558-39.3471069,127.013092
				c47.0441284-43.4487305,64.0703735-114.6030579,82.9486694-173.153717
				c7.503418-23.2728577,57.2845459-174.9836884,72.5494995-228.3177948
				c5.7796021-20.1936951,11.5592041-40.3873825,17.3387451-60.5810776
				c1.364624-4.7673416,4.5559082-11.2984467,4.6705322-16.317997
				C871.0562134,45.2060814,867.9414062,41.279438,865.4898071,36.6573067z"/>
		</g>
		<path class="st1" d="M873.003418,267.9345398c-5.6810303-16.7239227-11.3595581-33.4503784-17.5076904-50.0188904
			c-6.097168-16.585495-12.3760986-33.1072998-19.2689209-49.4015198
			c-3.5283813-8.1131439-7.0134888-16.2390137-10.9265137-24.1865692
			c-3.4060669-7.3548126-7.3276367-14.5321503-11.838562-21.2662201c-0.3973999-0.6275482-0.7871704-1.2228317-1.166748-1.7748032
			c-0.0110474-0.0152817-0.0195312-0.0314178-0.0305786-0.0458527l0.0025635,0.0017014l-0.0025635-0.0017014l0,0l0,0l0,0
			c0,0-0.2658081,0.1834259-0.6937866,0.5061188c-3.6047974,2.4957581-11.9098511,13.2880936-12.8405762,15.4968338
			c-0.467041,1.1064911-0.8534546,2.2460938-1.168457,3.4128876c-0.3770752,1.1124268-0.276001,2.8260956-0.0280762,3.886734
			c2.1179199,9.4285278,5.9035645,17.9339905,9.3971558,26.6347809c7.3446045,17.2079468,15.31427,34.0957489,23.5004272,50.87146
			c8.128418,16.8037262,16.6763306,33.3892212,25.1690674,50.0010376
			c8.6541138,16.5294495,33.6719971,46.3223572,33.6719971,46.3223572
			C883.9749146,301.4986877,878.6513672,284.6745605,873.003418,267.9345398z"/>
	</g>
	<g>
		<path class="st0" d="M850.4710693,292.3987732h18.050354c14.4956055,0,22.9272461,5.9010315,27.3634033,10.7915039
			c5.9196777,6.5073242,8.8807983,15.23526,8.8807983,25.4459229c0,10.2114868-2.9611206,19.0854797-8.8807983,25.4408264
			c-4.4361572,5.041626-12.8677979,10.9681091-27.3634033,10.9681091h-15.3864746v37.115448h-17.1603394V292.3987732H850.4710693z
			 M889.3791504,328.6362c0-4.2909546-0.8899536-10.4883423-4.885376-14.9312744
			c-3.5462036-3.8561707-8.8731689-5.9197083-15.9723511-5.9197083h-15.3864746v41.7282715h15.3864746
			c7.0991821,0,12.4261475-1.9438171,15.9723511-5.7745056C888.4891968,339.302002,889.3791504,333.0740356,889.3791504,328.6362z"
			/>
		<path class="st0" d="M1007.4901733,402.1605835h-19.3818359l-27.6606445-37.115448h-12.578125v37.115448h-17.1536255V292.3987732
			h14.4905396h18.048645c14.5032959,0,22.9281006,5.9010315,27.3710327,10.943512
			c5.7744751,6.3553162,8.8799438,15.2284851,8.8799438,25.4458923c0,10.0595093-3.1054688,18.9335022-8.8799438,25.2888489
			c-2.6630249,2.9721375-6.8028564,6.3799438-12.7225342,8.4434509L1007.4901733,402.1605835z M963.255127,349.6391602
			c7.1008911,0,12.427002-2.0694885,15.8348389-5.900177c4.140625-4.4369812,4.87854-10.6649475,4.87854-14.9508057
			c0-4.4429321-0.737915-10.6403198-4.87854-15.083252c-3.4078369-3.8561707-8.7339478-5.7685547-15.8348389-5.7685547h-15.3855591
			v41.7027893H963.255127z"/>
		<path class="st0" d="M1060.3759766,397.8747253c-6.6577148-2.7955322-12.4329834-6.8096313-17.4627686-11.8266296
			c-5.0297852-5.0424805-9.0183105-10.8169556-11.8325195-17.4754333
			c-2.8092041-6.6517029-4.2918701-13.8901672-4.2918701-21.2806702c0-7.4091492,1.482666-14.647644,4.2918701-21.4572754
			c2.814209-6.5064697,6.8027344-12.2809448,11.8325195-17.4745789c5.0297852-5.0178528,10.8050537-8.8740234,17.4627686-11.6763611
			c6.6575928-2.8209839,13.902832-4.2850037,21.3001709-4.2850037c7.3963623,0,14.647583,1.4640198,21.4504395,4.2850037
			c6.5133057,2.8023376,12.2818604,6.6585083,17.4627686,11.6763611c5.0238037,5.193634,8.8731689,10.9681091,11.6882324,17.4745789
			c2.8013916,6.8096313,4.2849121,14.0481262,4.2849121,21.4572754c0,7.3905029-1.4835205,14.6289673-4.2849121,21.2806702
			c-2.8150635,6.6584778-6.6644287,12.4329529-11.6882324,17.4754333
			c-5.1809082,5.0169983-10.9494629,9.0310974-17.4627686,11.8266296
			c-6.8028564,2.8278198-14.0540771,4.2858582-21.4504395,4.2858582
			C1074.2788086,402.1605835,1067.0335693,400.7025452,1060.3759766,397.8747253z M1055.0489502,320.6402283
			c-7.105957,7.112793-11.0946045,16.5922852-11.0946045,26.6517639c0,10.0348511,3.9886475,19.5202942,11.0946045,26.6263123
			c7.1009521,7.0873108,16.5667725,11.094635,26.6271973,11.094635c10.0594482,0,19.5253906-4.0073242,26.6322021-11.094635
			c7.1000977-7.1060181,11.0946045-16.5914612,11.0946045-26.6263123c0-10.0594788-3.9945068-19.5389709-11.0946045-26.6517639
			c-7.1068115-7.0864563-16.5727539-11.094635-26.6322021-11.094635
			C1071.6157227,309.5455933,1062.1499023,313.553772,1055.0489502,320.6402283z"/>
		<path class="st0" d="M1202.7210693,364.8939819c0,14.9253235-6.8028564,23.6532593-12.4261475,28.3934326
			c-6.8037109,5.7736511-16.2705078,8.8731689-26.6263428,8.8731689c-2.3725586,0-4.7392578-0.1520081-6.954834-0.4296875V384.11026
			c2.2155762,0.6003723,4.5822754,0.9026794,6.954834,0.9026794c6.3613281,0,11.8266602-1.7858582,15.6760254-4.8913269
			c3.9954834-3.401001,6.0716553-8.5700073,6.0716553-15.2276306v-72.4952087h17.3048096V364.8939819z"/>
		<path class="st0" d="M1258.7496338,337.0813599h40.088501v15.5307922h-40.088501v34.0167847h48.6712646v15.5316467h-48.8223877
			h-17.0075684V292.3987732h17.0075684h48.8223877v15.3864441h-48.6712646V337.0813599z"/>
		<path class="st0" d="M1414.8787842,393.1354065c-2.8082275,1.7926331-5.7685547,3.4018555-8.8731689,4.7393188
			c-6.8095703,2.8278198-14.060791,4.2858582-21.4512939,4.2858582c-7.4031982,0-14.6484375-1.4580383-21.3061523-4.2858582
			c-6.6584473-2.7955322-12.4261475-6.8096313-17.4559326-11.8266296
			c-5.0296631-5.0424805-9.0251465-10.8169556-11.833374-17.4754333
			c-2.8150635-6.6517029-4.2918701-13.8901672-4.2918701-21.2806702c0-7.4091492,1.4768066-14.647644,4.2918701-21.4572754
			c2.8082275-6.5064697,6.8037109-12.4329529,11.833374-17.4745789c5.0297852-5.0178528,10.7974854-8.9997253,17.4559326-11.6763611
			c6.6577148-2.9466858,13.9029541-4.2850037,21.3061523-4.2850037c7.3905029,0,14.6417236,1.3383179,21.4512939,4.2850037
			c0.7380371,0.3031616,1.6219482,0.7328491,2.3599854,1.0351562v20.277771
			c-6.6585693-5.472168-14.9381104-8.4511108-23.8112793-8.4511108c-10.0594482,0-19.5330811,3.8561707-26.6322021,11.094635
			c-7.1000977,7.112793-11.0947266,16.5922852-11.0947266,26.6517639c0,10.0348511,3.9946289,19.5202942,11.0947266,26.6263123
			c7.0991211,7.0873108,16.5727539,11.094635,26.6322021,11.094635s19.5262451-4.0073242,26.6263428-11.094635
			c1.3374023-1.331543,2.5109863-2.6698608,3.6981201-4.1593323V393.1354065z"/>
		<path class="st0" d="M1514.5174561,307.7852173h-30.1793213v94.3753662h-17.305542v-94.3753662H1436.84729v-15.3864441h77.670166
			V307.7852173z"/>
	</g>
</g>
</svg>
